<svg xmlns="http://www.w3.org/2000/svg" viewBox="0 0 40 50" fill="none">
  <!-- Body / resonator -->
  <ellipse cx="20" cy="43" rx="12" ry="7" stroke="#f1c40f" stroke-width="1.8"/>

  <!-- Left arm -->
  <path d="M8 40 C5 32 4 18 9 9 C12 5 14 4 14 4"
        stroke="#f1c40f" stroke-width="1.8" stroke-linecap="round"/>

  <!-- Right arm -->
  <path d="M32 40 C35 32 36 18 31 9 C28 5 26 4 26 4"
        stroke="#f1c40f" stroke-width="1.8" stroke-linecap="round"/>

  <!-- Crossbar -->
  <line x1="14" y1="4" x2="26" y2="4" stroke="#f1c40f" stroke-width="2.2" stroke-linecap="round"/>

  <!-- Ornament balls at arm tips -->
  <circle cx="14" cy="4" r="2.2" fill="#f1c40f"/>
  <circle cx="26" cy="4" r="2.2" fill="#f1c40f"/>

  <!-- Strings (5) -->
  <line x1="14" y1="6" x2="11" y2="39" stroke="#f1c40f" stroke-width="0.9" stroke-opacity="0.75"/>
  <line x1="17" y1="5" x2="16" y2="42" stroke="#f1c40f" stroke-width="0.9" stroke-opacity="0.75"/>
  <line x1="20" y1="4.5" x2="20" y2="44" stroke="#f1c40f" stroke-width="0.9" stroke-opacity="0.75"/>
  <line x1="23" y1="5" x2="24" y2="42" stroke="#f1c40f" stroke-width="0.9" stroke-opacity="0.75"/>
  <line x1="26" y1="6" x2="29" y2="39" stroke="#f1c40f" stroke-width="0.9" stroke-opacity="0.75"/>
</svg>
