<?xml version="1.0" encoding="UTF-8" standalone="no"?>
<!DOCTYPE svg PUBLIC "-//W3C//DTD SVG 1.1//EN" "http://www.w3.org/Graphics/SVG/1.1/DTD/svg11.dtd">
<svg width="100%" height="100%" viewBox="0 0 353 354" version="1.1" xmlns="http://www.w3.org/2000/svg" xmlns:xlink="http://www.w3.org/1999/xlink" xml:space="preserve" xmlns:serif="http://www.serif.com/" style="fill-rule:evenodd;clip-rule:evenodd;stroke-linejoin:round;stroke-miterlimit:2;">
    <g transform="matrix(1,0,0,1,-82.9,-469)">
        <path d="M367.2,651.1L367.2,648.9C367.2,647.3 367.3,645.7 367.3,645.7C367.3,645.7 367.3,645.1 367.2,643.9C367.2,643.3 367.2,642.6 367.1,641.9C367.1,641.1 367.1,640.2 367,639.3C366.9,638.3 366.8,637.3 366.8,636.2C366.8,635.6 366.7,635.1 366.7,634.5C366.6,633.9 366.5,633.3 366.5,632.7C366.3,631.5 366.2,630.3 366,629C365.8,627.8 365.5,626.5 365.3,625.2C365.1,623.9 364.8,622.7 364.5,621.4C364.4,620.8 364.2,620.2 364.1,619.6C364,619.3 364,619 363.9,618.7C363.8,618.4 363.7,618.1 363.6,617.8C362.9,615.5 362.4,613.3 361.7,611.5C361.4,610.6 361.1,609.7 360.9,609C360.7,608.3 360.4,607.6 360.2,607.1C359.8,606.1 359.6,605.5 359.6,605.5L397.6,590.3C397.6,590.3 398.2,591.8 399.1,594.1C399.5,595.2 400,596.6 400.5,598C400.7,598.7 401,599.5 401.2,600.2C401.5,601 401.7,601.7 401.9,602.5C402.8,605.6 403.7,608.7 404.2,611.1C404.7,613.5 405.1,615 405.1,615L399.5,616.2C399.5,616.2 399.2,615 398.8,613.3C398.6,612.4 398.4,611.4 398.1,610.3C397.8,609.2 397.5,608.1 397.2,606.9C396.9,605.8 396.5,604.6 396.2,603.5C395.9,602.4 395.5,601.5 395.2,600.6C394.6,598.9 394.2,597.8 394.2,597.8L368.4,606.9C368.4,606.9 368.6,607.5 368.9,608.5C369.2,609.5 369.8,611 370.2,612.7C370.7,614.5 371.3,616.5 371.8,618.8C372.1,619.9 372.3,621.1 372.6,622.3C372.8,623.5 373.4,627.1 373.5,627.7C373.6,628.3 373.7,628.9 373.7,629.5C373.9,630.7 374,631.9 374.2,633C374.4,635.3 374.5,637.5 374.7,639.3C374.8,643 374.9,645.5 374.9,645.5L435.6,645.5C435.6,645.5 435.6,643.9 435.5,641.2C435.5,639.8 435.4,638.2 435.4,636.3C435.3,634.4 435.1,632.2 434.9,629.9C434.8,627.6 434.4,625 434.1,622.3C433.9,621 433.8,619.6 433.5,618.2C433.3,616.8 433,615.4 432.7,613.9C432.4,612.5 432.2,611 431.9,609.5C431.6,608 431.2,606.5 430.9,605C430.5,603.5 430.2,602 429.8,600.5C429.4,599 428.9,597.5 428.5,596C426.8,590 424.6,584 422.4,578.6C420.1,573.2 417.8,568.2 415.6,564C415.1,563 414.6,561.9 414,561C413.5,560.1 413,559.2 412.5,558.4C411.5,556.7 410.7,555.3 410,554.1C408.5,551.8 407.7,550.5 407.7,550.5L350.1,587.4C350.1,587.4 349.9,587.1 349.6,586.6C349.3,586.1 348.9,585.4 348.4,584.8C347.5,583.5 346.6,582.2 346.6,582.2C346.6,582.2 346.5,582.1 346.3,581.8C346.1,581.6 345.9,581.2 345.5,580.7C344.8,579.8 343.8,578.5 342.6,577C340.1,574.1 336.7,570.1 332.9,566.7C332.4,566.3 332,565.8 331.5,565.4C331,565 330.5,564.6 330,564.1C329.5,563.7 329,563.3 328.6,562.9C328.1,562.5 327.7,562.1 327.2,561.7C325.3,560.2 323.5,558.8 321.9,557.7C321.1,557.1 320.4,556.6 319.8,556.2C319.2,555.7 318.6,555.4 318.1,555.1C317.2,554.5 316.6,554.1 316.6,554.1L338.4,519.5C338.4,519.5 339.8,520.4 341.8,521.7C342.8,522.3 344,523.2 345.2,524.1C346.4,525 347.8,525.9 349,526.9C351.5,528.9 354.1,530.9 355.9,532.5C357.7,534.1 359,535.2 359,535.2L355.2,539.5C355.2,539.5 354.3,538.7 353,537.6C352.3,537 351.5,536.3 350.7,535.6C349.9,534.9 348.9,534.2 348,533.4C347.1,532.7 346.1,531.9 345.3,531.2C344.4,530.5 343.6,529.9 342.8,529.4C341.3,528.4 340.4,527.7 340.4,527.7L324.9,550.3C324.9,550.3 325.4,550.7 326.3,551.3C327.2,551.9 328.5,552.8 329.9,553.9C331.3,555.1 333.1,556.3 334.8,557.9C335.7,558.7 336.6,559.4 337.5,560.2C338.4,561 339.3,561.9 340.2,562.7C340.6,563.1 341.1,563.5 341.5,564C341.9,564.4 342.3,564.9 342.8,565.3C343.6,566.2 344.5,567 345.3,567.9C346.1,568.8 346.8,569.6 347.5,570.4C348.2,571.2 348.9,571.9 349.4,572.7C350.5,574.2 351.5,575.4 352.2,576.2C352.8,577.1 353.2,577.6 353.2,577.6L402.2,541.9C402.2,541.9 402,541.6 401.5,541C401.1,540.4 400.4,539.5 399.6,538.5C397.9,536.3 395.5,533.2 392.4,529.7C391.6,528.8 390.8,527.9 390,526.9C389.1,526 388.2,525 387.3,524.1C386.4,523.1 385.4,522.1 384.4,521.1C383.4,520.1 382.3,519.1 381.3,518.1C380.2,517.1 379.1,516.1 378,515C376.9,514 375.7,513 374.5,512C373.3,511 372.2,510 370.9,509C369.7,508 368.4,507.1 367.2,506.1C362.3,502.2 357.1,498.7 352.1,495.6C350.9,494.8 349.6,494.1 348.4,493.4C347.2,492.7 346,492 344.8,491.3C343.6,490.6 342.5,490 341.3,489.4C340.2,488.8 339.1,488.3 338,487.7C335.9,486.6 333.9,485.7 332.2,484.9C330.5,484.1 328.9,483.4 327.7,482.9C325.1,481.9 323.7,481.3 323.7,481.3L298.7,545C298.7,545 298.3,544.9 297.8,544.6C297.2,544.4 296.5,544.1 295.8,543.8C294.3,543.3 292.8,542.8 292.8,542.8C292.8,542.8 292.6,542.7 292.4,542.7C292.1,542.6 291.7,542.4 291.2,542.3C290.1,542 288.6,541.6 286.7,541C285.8,540.8 284.7,540.6 283.7,540.3C282.6,540.1 281.5,539.7 280.3,539.6C279.1,539.4 277.9,539.2 276.6,538.9C275.4,538.7 274.1,538.6 272.8,538.4C272.2,538.3 271.5,538.2 270.9,538.1C270.3,538 269.6,538 269,537.9C267.7,537.8 266.5,537.7 265.3,537.6C264.1,537.6 262.9,537.5 261.8,537.5C260.7,537.5 259.6,537.4 258.7,537.5C256.8,537.5 255.1,537.6 254,537.6C252.9,537.7 252.2,537.7 252.2,537.7L249.5,496.9C249.5,496.9 249.9,496.9 250.6,496.8C251,496.8 251.4,496.7 251.9,496.7L253.6,496.7C256,496.7 259.3,496.5 262.5,496.6C264.1,496.6 265.7,496.7 267.2,496.7C268.7,496.8 270.1,496.9 271.3,497C272.5,497.1 273.5,497.2 274.2,497.2C274.6,497.2 274.8,497.3 275,497.3L275.3,497.3L274.7,503C274.7,503 274.4,503 273.9,502.9C273.4,502.9 272.6,502.8 271.8,502.7C270.9,502.6 269.9,502.6 268.8,502.5C268.2,502.5 267.7,502.4 267.1,502.4C266.5,502.4 265.9,502.4 265.3,502.3C262.9,502.3 260.6,502.1 258.8,502.2C257,502.2 255.8,502.3 255.8,502.3L256.5,529.7L258.2,529.7C259.3,529.6 260.8,529.7 262.7,529.7C263.6,529.7 264.6,529.7 265.7,529.8C266.8,529.9 267.9,530 269,530.1C271.3,530.2 273.7,530.6 276.2,530.9C277.4,531 278.6,531.3 279.8,531.5C281,531.7 282.2,531.9 283.3,532.1C284.4,532.4 285.5,532.6 286.5,532.9C287.5,533.1 288.5,533.3 289.4,533.6C291.2,534.1 292.7,534.5 293.7,534.8C294.2,534.9 294.6,535.1 294.9,535.2C295.2,535.3 295.3,535.3 295.3,535.3L314,477.6C314,477.6 313.6,477.5 312.9,477.2C312.2,477 311.2,476.6 309.8,476.3C307.2,475.5 303.4,474.4 298.8,473.4C297.7,473.1 296.5,472.9 295.2,472.6C294,472.3 292.7,472.1 291.3,471.9C290,471.7 288.6,471.4 287.2,471.2C285.8,470.9 284.4,470.8 282.9,470.6C281.4,470.4 280,470.2 278.5,470C277,469.8 275.5,469.7 273.9,469.6C272.4,469.5 270.8,469.4 269.3,469.3C267.7,469.2 266.2,469.2 264.6,469.1C263,469.1 261.5,469 259.9,469C258.3,469 256.8,469.1 255.3,469.1C253.8,469.1 252.2,469.2 250.7,469.2C249.2,469.3 247.7,469.4 246.2,469.5C244.7,469.6 243.3,469.7 241.9,469.8C240.5,469.9 239.1,470.1 237.8,470.3C235.1,470.6 232.6,470.9 230.3,471.4C228,471.8 225.9,472.2 224,472.5C222.1,472.9 220.5,473.3 219.2,473.6C217.9,473.9 216.8,474.2 216.1,474.3C215.4,474.5 215,474.6 215,474.6L232.2,540.8C232.2,540.8 230.7,541.2 229.1,541.7C228.3,541.9 227.6,542.1 227,542.3C226.4,542.5 226.1,542.6 226.1,542.6C226.1,542.6 225.5,542.8 224.4,543.2C223.9,543.4 223.2,543.6 222.5,543.8C221.8,544.1 221,544.4 220.1,544.8C219.2,545.2 218.2,545.5 217.2,545.9C216.2,546.4 215.1,546.8 214,547.3C212.9,547.8 211.8,548.3 210.7,548.9C210.1,549.2 209.6,549.5 209,549.8C208.4,550.1 207.9,550.4 207.3,550.7C206.2,551.3 205.1,552 204,552.6C202.9,553.2 201.9,554 200.9,554.6C200.4,554.9 199.9,555.2 199.4,555.6C198.9,555.9 198.5,556.3 198,556.6C197.1,557.2 196.2,557.8 195.5,558.4C193.9,559.6 192.7,560.6 191.8,561.3C190.9,562 190.4,562.4 190.4,562.4L164,531.4C164,531.4 164.3,531.1 164.8,530.7C165.4,530.3 166.2,529.6 167.1,528.9C168.1,528.2 169.2,527.3 170.4,526.3C171.6,525.4 173,524.5 174.3,523.5C175,523 175.6,522.6 176.3,522.1C177,521.7 177.6,521.2 178.3,520.8C179.6,520 180.8,519.2 181.8,518.6C182.8,517.9 183.7,517.5 184.3,517.1C184.9,516.7 185.3,516.5 185.3,516.5L188.2,521.5C188.2,521.5 187.2,522.1 185.6,523C184.1,523.9 182.1,525.2 180.1,526.5C178.1,527.8 176.2,529.2 174.8,530.3C174.1,530.8 173.5,531.3 173.1,531.6C172.7,531.9 172.5,532.1 172.5,532.1L189.2,553.8C189.2,553.8 189.7,553.4 190.5,552.8C191.4,552.2 192.6,551.3 194.1,550.2C194.8,549.6 195.7,549.1 196.6,548.6C197.5,548 198.4,547.4 199.4,546.8C200.4,546.2 201.4,545.6 202.5,545C203.5,544.4 204.6,543.8 205.7,543.2C206.8,542.6 207.9,542.1 209,541.5C210.1,541 211.2,540.5 212.2,540C213.3,539.5 214.2,539 215.2,538.7C216.2,538.3 217.1,537.9 218,537.6C219.7,536.9 221.2,536.4 222.2,536.1C223.2,535.8 223.8,535.6 223.8,535.6L205.1,477.9C205.1,477.9 203.6,478.4 201,479.3C200.3,479.5 199.6,479.8 198.8,480C198,480.3 197.2,480.6 196.3,481C194.5,481.7 192.5,482.5 190.3,483.4C181.6,487.1 170.4,492.8 160.1,500C158.8,500.9 157.5,501.8 156.3,502.7C155,503.6 153.8,504.5 152.6,505.5C151.4,506.5 150.2,507.4 149,508.3C148.4,508.8 147.8,509.2 147.2,509.7C146.6,510.2 146.1,510.7 145.5,511.1C141,514.9 137,518.7 133.7,522C132.1,523.7 130.6,525.3 129.3,526.6C128,528 126.9,529.3 126,530.3C125.1,531.3 124.4,532.2 123.9,532.7C123.4,533.3 123.2,533.6 123.2,533.6L176.1,577C176.1,577 175.1,578.3 174.1,579.5C173.1,580.7 172.2,582 172.2,582C172.2,582 171.8,582.5 171.2,583.4C170.9,583.9 170.5,584.4 170,585.1C169.6,585.8 169.1,586.5 168.6,587.3C166.4,590.5 164,595 161.8,599.7C161.3,600.9 160.7,602 160.2,603.2C159.7,604.4 159.3,605.5 158.8,606.7C158.6,607.3 158.4,607.8 158.1,608.3C157.9,608.8 157.7,609.4 157.6,609.9C157.2,610.9 156.9,611.9 156.6,612.8C156,614.6 155.6,616.2 155.3,617.3C155,618.4 154.8,619 154.8,619L115.1,609C115.1,609 115.2,608.6 115.4,607.9C115.6,607.2 115.9,606.2 116.2,605.1C116.5,603.9 116.9,602.6 117.3,601.1C117.8,599.7 118.3,598.1 118.8,596.6C119.1,595.8 119.3,595.1 119.6,594.3C119.9,593.6 120.2,592.8 120.4,592.1C121,590.7 121.5,589.4 121.9,588.2C122.3,587.1 122.8,586.2 123.1,585.5C123.4,584.9 123.6,584.5 123.6,584.5L128.8,586.8C128.8,586.8 128.3,587.9 127.6,589.5C126.9,591.2 126.1,593.4 125.2,595.6C124.4,597.8 123.7,600.1 123.1,601.8C122.8,602.6 122.6,603.4 122.5,603.9C122.4,604.4 122.3,604.7 122.3,604.7L148.6,612.5C148.6,612.5 148.8,611.9 149.1,610.9C149.4,609.9 149.9,608.4 150.5,606.7C150.8,605.8 151.1,604.9 151.5,603.9C151.9,602.9 152.3,601.9 152.7,600.8C153.1,599.7 153.7,598.7 154.1,597.6C154.6,596.5 155.1,595.4 155.7,594.3C156.3,593.2 156.8,592.1 157.4,591C157.9,589.9 158.6,588.9 159.1,587.9C159.7,586.9 160.2,585.9 160.8,585C161.4,584.1 161.9,583.3 162.4,582.5C162.9,581.7 163.3,581 163.8,580.4C164.2,579.8 164.6,579.3 164.9,578.8C165.5,577.9 165.9,577.4 165.9,577.4L116.9,541.7C116.9,541.7 116,543 114.4,545.2C114,545.8 113.6,546.4 113.1,547.1C112.7,547.8 112.2,548.5 111.6,549.4C110.6,551 109.4,552.8 108.2,554.8C107,556.8 105.8,559.1 104.4,561.4C103.2,563.8 101.9,566.3 100.5,569C99.3,571.7 98,574.4 96.8,577.3C96.2,578.7 95.7,580.2 95.1,581.6C94.5,583.1 93.9,584.5 93.4,586C91.3,591.9 89.5,598 88.1,603.7C86.7,609.4 85.7,614.8 85,619.5C84.4,624.2 83.9,628.1 83.7,630.8C83.5,633.5 83.4,635.1 83.4,635.1L151.7,639.1C151.7,639.1 151.7,639.5 151.6,640.1L151.6,642.3C151.6,643.9 151.5,645.5 151.5,645.5C151.5,645.5 151.5,646.1 151.6,647.3C151.6,647.9 151.6,648.6 151.7,649.3C151.7,650.1 151.7,651 151.8,651.9C151.9,652.9 152,653.9 152,655C152,655.6 152.1,656.1 152.1,656.7C152.2,657.3 152.3,657.9 152.3,658.5C152.5,659.7 152.6,660.9 152.8,662.2C153,663.4 153.3,664.7 153.5,666C153.7,667.3 154,668.5 154.3,669.8C154.4,670.4 154.6,671 154.7,671.6C154.8,671.9 154.8,672.2 154.9,672.5C155,672.8 155.1,673.1 155.2,673.4C155.9,675.7 156.4,677.9 157.1,679.7C157.4,680.6 157.7,681.5 157.9,682.2C158.1,682.9 158.4,683.6 158.6,684.1C159,685.1 159.2,685.7 159.2,685.7L121.2,700.9C121.2,700.9 120.6,699.4 119.7,697.1C119.3,696 118.8,694.6 118.3,693.2C118.1,692.5 117.8,691.7 117.6,691C117.3,690.2 117.1,689.5 116.9,688.7C116,685.6 115.1,682.5 114.6,680.1C114.1,677.7 113.7,676.2 113.7,676.2L119.3,675C119.3,675 119.6,676.2 120,677.9C120.2,678.8 120.4,679.8 120.7,680.9C121,682 121.3,683.1 121.6,684.3C121.9,685.4 122.3,686.6 122.6,687.7C122.9,688.8 123.3,689.7 123.6,690.6C124.2,692.3 124.6,693.4 124.6,693.4L150.4,684.3C150.4,684.3 150.2,683.7 149.9,682.7C149.6,681.7 149,680.2 148.6,678.5C148.1,676.7 147.5,674.7 147,672.4C146.7,671.3 146.5,670.1 146.2,668.9C146,667.7 145.4,664.1 145.3,663.5C145.2,662.9 145.1,662.3 145.1,661.7C144.9,660.5 144.8,659.3 144.6,658.2C144.4,655.9 144.3,653.7 144.1,651.9C144,648.2 143.9,645.7 143.9,645.7L82.9,645.7C82.9,645.7 82.9,647.3 83,650C83,651.4 83.1,653 83.1,654.9C83.2,656.8 83.4,659 83.6,661.3C83.7,663.6 84.1,666.2 84.4,668.9C84.6,670.2 84.7,671.6 85,673C85.2,674.4 85.5,675.8 85.8,677.3C86.1,678.7 86.3,680.2 86.6,681.7C86.9,683.2 87.3,684.7 87.6,686.2C88,687.7 88.3,689.2 88.7,690.7C89.1,692.2 89.6,693.7 90,695.2C91.7,701.2 93.9,707.2 96.1,712.6C98.4,718 100.7,723 102.9,727.2C103.4,728.2 103.9,729.3 104.5,730.2C105,731.1 105.5,732 106,732.8C107,734.5 107.8,735.9 108.5,737.1C110,739.4 110.8,740.7 110.8,740.7L168.4,703.8C168.4,703.8 168.6,704.1 168.9,704.6C169.2,705.1 169.6,705.8 170.1,706.4C171,707.7 171.9,709 171.9,709C171.9,709 172,709.1 172.2,709.4C172.4,709.6 172.6,710 173,710.5C173.7,711.4 174.7,712.7 175.9,714.2C178.4,717.1 181.8,721.1 185.6,724.5C186.1,724.9 186.5,725.4 187,725.8C187.5,726.2 188,726.6 188.5,727.1C189,727.5 189.5,727.9 189.9,728.3C190.4,728.7 190.8,729.1 191.3,729.5C193.2,731 195,732.4 196.6,733.5C197.4,734.1 198.1,734.6 198.7,735C199.3,735.5 199.9,735.8 200.4,736.1C201.3,736.7 201.9,737.1 201.9,737.1L180.1,771.7C180.1,771.7 178.7,770.8 176.7,769.5C175.7,768.9 174.5,768 173.3,767.1C172.1,766.2 170.7,765.3 169.5,764.3C167,762.3 164.4,760.3 162.6,758.7C160.8,757.1 159.5,756 159.5,756L163.3,751.7C163.3,751.7 164.2,752.5 165.5,753.6C166.2,754.2 167,754.9 167.8,755.6C168.6,756.3 169.6,757 170.5,757.8C171.4,758.5 172.4,759.3 173.2,760C174.1,760.7 174.9,761.3 175.7,761.8C177.2,762.8 178.1,763.5 178.1,763.5L193.6,740.9C193.6,740.9 193.1,740.5 192.2,739.9C191.3,739.3 190,738.4 188.6,737.3C187.2,736.1 185.4,734.9 183.7,733.3C182.8,732.5 181.9,731.8 181,731C180.1,730.2 179.2,729.3 178.3,728.5C177.9,728.1 177.4,727.7 177,727.2C176.6,726.8 176.2,726.3 175.7,725.9C174.9,725 174,724.2 173.2,723.3C172.4,722.4 171.7,721.6 171,720.8C170.3,720 169.6,719.3 169.1,718.5C168,717 167,715.8 166.3,715C165.7,714.1 165.3,713.6 165.3,713.6L116.3,749.3C116.3,749.3 116.5,749.6 117,750.2C117.4,750.8 118.1,751.7 118.9,752.7C120.6,754.9 123,758 126.1,761.5C126.9,762.4 127.7,763.3 128.5,764.3C129.4,765.2 130.3,766.2 131.2,767.1C132.1,768.1 133.1,769.1 134.1,770.1C135.1,771.1 136.2,772.1 137.2,773.1C138.3,774.1 139.4,775.1 140.5,776.2C141.6,777.2 142.8,778.2 144,779.2C145.2,780.2 146.3,781.2 147.6,782.2C148.8,783.2 150.1,784.1 151.3,785.1C156.2,789 161.4,792.5 166.4,795.6C167.6,796.4 168.9,797.1 170.1,797.8C171.3,798.5 172.5,799.2 173.7,799.9C174.9,800.6 176,801.2 177.2,801.8C178.3,802.4 179.4,802.9 180.5,803.5C182.6,804.6 184.6,805.5 186.3,806.3C188,807.1 189.6,807.8 190.8,808.3C193.4,809.3 194.8,809.9 194.8,809.9L219.8,746.2C219.8,746.2 220.2,746.3 220.7,746.6C221.3,746.8 222,747.1 222.7,747.4C224.2,747.9 225.7,748.4 225.7,748.4C225.7,748.4 225.9,748.5 226.1,748.5C226.4,748.6 226.8,748.8 227.3,748.9C228.4,749.2 229.9,749.6 231.8,750.2C232.7,750.4 233.8,750.6 234.8,750.9C235.9,751.1 237,751.5 238.2,751.6C239.4,751.8 240.6,752 241.9,752.3C243.1,752.5 244.4,752.6 245.7,752.8C246.3,752.9 247,753 247.6,753.1C248.2,753.2 248.9,753.2 249.5,753.3C250.8,753.4 252,753.5 253.2,753.6C254.4,753.6 255.6,753.7 256.7,753.7C257.8,753.7 258.9,753.8 259.8,753.7C261.7,753.7 263.4,753.6 264.5,753.6C265.6,753.5 266.3,753.5 266.3,753.5L269,794.3C269,794.3 268.6,794.3 267.9,794.4C267.5,794.4 267.1,794.5 266.6,794.5L264.9,794.5C262.5,794.5 259.2,794.7 256,794.6C254.4,794.6 252.8,794.5 251.3,794.5C249.8,794.4 248.4,794.3 247.2,794.2C246,794.1 245,794 244.3,794C243.9,794 243.7,793.9 243.5,793.9L243.2,793.9L243.8,788.2C243.8,788.2 244.1,788.2 244.6,788.3C245.1,788.3 245.9,788.4 246.7,788.5C247.6,788.6 248.6,788.6 249.7,788.7C250.3,788.7 250.8,788.8 251.4,788.8C252,788.8 252.6,788.8 253.2,788.9C255.6,788.9 257.9,789.1 259.7,789C261.5,789 262.7,788.9 262.7,788.9L262,761.5L260.3,761.5C259.2,761.6 257.7,761.5 255.8,761.5C254.9,761.5 253.9,761.5 252.8,761.4C251.7,761.3 250.6,761.2 249.5,761.1C247.2,761 244.8,760.6 242.3,760.3C241.1,760.2 239.9,759.9 238.7,759.7C237.5,759.5 236.3,759.3 235.2,759.1C234.1,758.8 233,758.6 232,758.3C231,758.1 230,757.9 229.1,757.6C227.3,757.1 225.8,756.7 224.8,756.4C224.3,756.3 223.9,756.1 223.6,756C223.3,755.9 223.2,755.9 223.2,755.9L204.5,813.6C204.5,813.6 204.9,813.7 205.6,814C206.3,814.2 207.3,814.6 208.7,814.9C211.3,815.7 215.1,816.8 219.7,817.8C220.8,818.1 222,818.3 223.3,818.6C224.5,818.9 225.8,819.1 227.2,819.3C228.5,819.5 229.9,819.8 231.3,820C232.7,820.3 234.1,820.4 235.6,820.6C237.1,820.8 238.5,821 240,821.2C241.5,821.4 243,821.5 244.6,821.6C246.1,821.7 247.7,821.8 249.2,821.9C250.8,822 252.3,822 253.9,822.1C255.5,822.1 257,822.2 258.6,822.2C260.2,822.2 261.7,822.1 263.2,822.1C264.7,822.1 266.3,822 267.8,822C269.3,821.9 270.8,821.8 272.3,821.7C273.8,821.6 275.2,821.5 276.6,821.4C278,821.3 279.4,821.1 280.7,820.9C283.4,820.6 285.9,820.3 288.2,819.8C290.5,819.4 292.6,819 294.5,818.7C296.4,818.3 298,817.9 299.3,817.6C300.6,817.3 301.7,817 302.4,816.9C303.1,816.7 303.5,816.6 303.5,816.6L286.3,750.4C286.3,750.4 287.8,750 289.4,749.5C290.2,749.3 290.9,749.1 291.5,748.9C292.1,748.7 292.4,748.6 292.4,748.6C292.4,748.6 293,748.4 294.1,748C294.6,747.8 295.3,747.6 296,747.4C296.7,747.1 297.5,746.8 298.4,746.4C299.3,746 300.3,745.7 301.3,745.3C302.3,744.8 303.4,744.4 304.5,743.9C305.6,743.4 306.7,742.9 307.8,742.3C308.4,742 308.9,741.7 309.5,741.4C310.1,741.1 310.6,740.8 311.2,740.5C312.3,739.9 313.4,739.2 314.5,738.6C315.6,738 316.6,737.2 317.6,736.6C318.1,736.3 318.6,736 319.1,735.6C319.6,735.3 320,734.9 320.5,734.6C321.4,734 322.3,733.4 323,732.8C324.6,731.6 325.8,730.6 326.7,729.9C327.6,729.2 328.1,728.8 328.1,728.8L354.3,760.2C354.3,760.2 354,760.5 353.5,760.9C352.9,761.3 352.1,762 351.2,762.7C350.2,763.4 349.1,764.3 347.9,765.3C346.7,766.2 345.3,767.1 344,768.1C343.3,768.6 342.7,769 342,769.5C341.3,769.9 340.7,770.4 340,770.8C338.7,771.6 337.5,772.4 336.5,773C335.5,773.7 334.6,774.1 334,774.5C333.4,774.9 333,775.1 333,775.1L330.1,770.1C330.1,770.1 331.1,769.5 332.7,768.6C334.2,767.7 336.2,766.4 338.2,765.1C340.2,763.8 342.1,762.4 343.5,761.3C344.2,760.8 344.8,760.3 345.2,760C345.6,759.7 345.8,759.5 345.8,759.5L329.1,737.8C329.1,737.8 328.6,738.2 327.8,738.8C326.9,739.4 325.7,740.3 324.2,741.4C323.5,742 322.6,742.5 321.7,743C320.8,743.6 319.9,744.2 318.9,744.8C317.9,745.4 316.9,746 315.8,746.6C314.8,747.2 313.7,747.8 312.6,748.4C311.5,749 310.4,749.5 309.3,750.1C308.2,750.6 307.1,751.1 306.1,751.6C305,752.1 304.1,752.6 303.1,752.9C302.1,753.3 301.2,753.7 300.3,754C298.6,754.7 297.1,755.2 296.1,755.5C295.1,755.8 294.5,756 294.5,756L313.2,813.7C313.2,813.7 314.7,813.2 317.3,812.3C318,812.1 318.7,811.8 319.5,811.6C320.3,811.3 321.1,811 322,810.6C323.8,809.9 325.8,809.1 328,808.2C336.7,804.5 347.9,798.8 358.2,791.6C359.5,790.7 360.8,789.8 362,788.9C363.3,788 364.5,787.1 365.7,786.1C366.9,785.1 368.1,784.2 369.3,783.3C369.9,782.8 370.5,782.4 371.1,781.9C371.7,781.4 372.2,780.9 372.8,780.5C377.3,776.7 381.3,772.9 384.6,769.6C386.2,767.9 387.7,766.3 389,765C390.3,763.6 391.4,762.3 392.3,761.3C393.2,760.3 393.9,759.4 394.4,758.9C394.9,758.3 395.1,758 395.1,758L342.2,714.6C342.2,714.6 343.2,713.3 344.2,712.1C345.2,710.9 346.1,709.6 346.1,709.6C346.1,709.6 346.5,709.1 347.1,708.2C347.4,707.7 347.8,707.2 348.3,706.5C348.7,705.8 349.2,705.1 349.7,704.3C351.9,701.1 354.3,696.6 356.5,691.9C357,690.7 357.6,689.6 358.1,688.4C358.6,687.2 359,686.1 359.5,684.9C359.7,684.3 359.9,683.8 360.2,683.3C360.4,682.8 360.6,682.2 360.7,681.7C361.1,680.7 361.4,679.7 361.7,678.8C362.3,677 362.7,675.4 363,674.3C363.3,673.2 363.5,672.6 363.5,672.6L403.2,682.6C403.2,682.6 403.1,683 402.9,683.7C402.7,684.4 402.4,685.4 402.1,686.5C401.8,687.7 401.4,689 401,690.5C400.5,691.9 400,693.5 399.5,695C399.2,695.8 399,696.5 398.7,697.3C398.4,698 398.1,698.8 397.8,699.5C397.2,700.9 396.7,702.2 396.3,703.4C395.9,704.5 395.4,705.4 395.1,706.1C394.8,706.7 394.6,707.1 394.6,707.1L389.4,704.8C389.4,704.8 389.9,703.7 390.6,702.1C391.3,700.4 392.1,698.2 393,696C393.8,693.8 394.5,691.5 395.1,689.8C395.4,689 395.6,688.2 395.7,687.7C395.8,687.2 395.9,686.9 395.9,686.9L369.6,679.1C369.6,679.1 369.4,679.7 369.1,680.7C368.8,681.7 368.3,683.2 367.7,684.9C367.4,685.8 367.1,686.7 366.7,687.7C366.3,688.7 365.9,689.7 365.5,690.8C365.1,691.9 364.5,692.9 364.1,694C363.6,695.1 363.1,696.2 362.5,697.3C361.9,698.4 361.4,699.5 360.8,700.6C360.3,701.7 359.6,702.7 359.1,703.7C358.5,704.7 358,705.7 357.4,706.6C356.8,707.5 356.3,708.3 355.8,709.1C355.3,709.9 354.9,710.6 354.4,711.2C354,711.8 353.6,712.3 353.3,712.8C352.7,713.7 352.3,714.2 352.3,714.2L401.3,749.9C401.3,749.9 402.2,748.6 403.8,746.4C404.2,745.8 404.6,745.2 405.1,744.5C405.5,743.8 406,743.1 406.6,742.2C407.6,740.6 408.8,738.8 410,736.8C411.2,734.8 412.4,732.5 413.8,730.2C415,727.8 416.3,725.3 417.7,722.6C418.9,719.9 420.2,717.2 421.4,714.3C422,712.9 422.5,711.4 423.1,710C423.7,708.5 424.3,707.1 424.8,705.6C426.9,699.7 428.7,693.6 430.1,687.9C431.5,682.2 432.5,676.8 433.2,672.1C433.8,667.4 434.3,663.5 434.5,660.8C434.7,658.1 434.8,656.5 434.8,656.5L366.5,652.5C367.2,652.1 367.2,651.7 367.2,651.1ZM425.3,666.7C425.3,666.7 425.2,667.8 424.9,669.8C424.8,670.8 424.6,672 424.3,673.3C424.1,674.7 423.8,676.2 423.5,677.9C422.1,684.6 420,693.5 416.9,702C413.8,710.6 410,718.8 406.7,724.8C405.1,727.8 403.6,730.2 402.6,732C402.1,732.9 401.7,733.5 401.4,734C401.1,734.4 401,734.7 401,734.7L365.2,712.2C365.2,712.2 365.4,711.9 365.8,711.3C366.2,710.7 366.7,709.8 367.3,708.8C367.9,707.8 368.6,706.5 369.3,705.2C370,703.9 370.7,702.4 371.4,701L372,699.9C372.2,699.5 372.3,699.2 372.5,698.8C372.8,698.1 373.1,697.4 373.5,696.7C374.1,695.3 374.7,694.1 375.1,692.9C376,690.7 376.6,689.2 376.6,689.2L385.1,692.3C385.1,692.3 384.7,693.3 384.1,694.9C383.8,695.7 383.4,696.6 383.1,697.6C382.7,698.6 382.2,699.6 381.8,700.6C381.3,701.6 380.9,702.6 380.5,703.6C380.1,704.5 379.6,705.4 379.2,706.1C378.4,707.6 377.9,708.6 377.9,708.6L399.2,719.9C399.2,719.9 399.5,719.2 400.2,718C400.5,717.4 400.9,716.7 401.3,715.9C401.7,715.1 402.2,714.1 402.7,713.1C403.2,712.1 403.7,710.9 404.2,709.7C404.7,708.5 405.3,707.3 405.8,705.9C406.8,703.2 408,700.4 409,697.5C409.5,696.1 410,694.6 410.5,693.2C411,691.8 411.3,690.3 411.7,689C412.1,687.6 412.5,686.3 412.8,685C413.1,683.7 413.4,682.5 413.6,681.4C414.1,679.2 414.6,677.3 414.8,676C415,674.7 415.2,673.9 415.2,673.9L356.9,663.4C356.9,663.4 356.8,664.1 356.6,665.3C356.4,666.5 355.9,668.2 355.5,670.2C354.4,674.2 352.8,679.5 350.6,684.6C348.5,689.7 345.7,694.5 343.5,698.1C342.4,699.8 341.5,701.3 340.7,702.3C340,703.3 339.6,703.9 339.6,703.9C339.6,703.9 339.5,704.1 339.3,704.3C339.1,704.6 338.8,705 338.5,705.4C337.8,706.3 336.8,707.5 335.8,708.8C334.8,710 333.8,711.2 333,712C332.6,712.4 332.3,712.8 332,713C331.8,713.2 331.6,713.4 331.6,713.4L381.5,760.3C381.5,760.3 380.7,761.1 379.3,762.6C378,764.1 375.9,766 373.4,768.3C368.4,772.9 361.5,778.8 353.9,783.9C346.4,789 338.4,793.4 332.3,796.4C329.2,797.8 326.6,799 324.8,799.8C323,800.5 321.9,801 321.9,801L306.1,761.7C306.1,761.7 306.5,761.6 307.1,761.3C307.4,761.2 307.8,761 308.3,760.8C308.7,760.6 309.2,760.4 309.8,760.1C310.9,759.6 312.2,759 313.6,758.4C314.9,757.7 316.4,757 317.8,756.3C319.2,755.6 320.6,754.8 321.9,754C323.2,753.2 324.4,752.6 325.4,751.9C327.4,750.6 328.8,749.7 328.8,749.7L333.8,757.2C333.8,757.2 332.9,757.8 331.5,758.7C330.8,759.2 330,759.7 329.1,760.2C328.2,760.7 327.2,761.3 326.3,761.8C325.3,762.4 324.4,762.9 323.5,763.4C322.6,763.9 321.7,764.3 321,764.7C319.5,765.5 318.5,766 318.5,766L329.1,787.6C329.1,787.6 329.8,787.3 331,786.6C332.2,786 333.9,785.2 335.9,784C337.9,782.8 340.2,781.6 342.6,780.1C343.8,779.3 345,778.5 346.3,777.7C346.9,777.3 347.6,776.9 348.2,776.5C348.8,776.1 349.4,775.6 350.1,775.2C351.3,774.3 352.6,773.4 353.8,772.6C355,771.7 356.2,770.8 357.3,769.9C358.4,769 359.5,768.2 360.5,767.3C361.5,766.4 362.4,765.6 363.3,764.9C364.2,764.2 365,763.5 365.7,762.9C366.4,762.3 367,761.7 367.5,761.3C368.5,760.4 369,759.9 369,759.9L328,717.1C328,717.1 327.5,717.6 326.6,718.4C325.7,719.2 324.4,720.3 322.8,721.7C319.6,724.3 315.1,727.7 310.4,730.5C305.7,733.4 300.6,735.7 296.8,737.3C295.8,737.7 295,738 294.2,738.3C293.4,738.6 292.7,738.8 292.1,739C291,739.4 290.3,739.6 290.3,739.6C290.3,739.6 290.1,739.7 289.8,739.8C289.5,739.9 289,740.1 288.5,740.2C287.4,740.5 285.9,740.9 284.4,741.4C282.9,741.7 281.4,742.1 280.2,742.4C279.6,742.6 279.1,742.6 278.8,742.7C278.5,742.8 278.3,742.8 278.3,742.8L291,810C291,810 289.9,810.2 287.9,810.6C286.9,810.8 285.7,811 284.4,811.2C283,811.4 281.5,811.6 279.8,811.8C279,811.9 278.1,812 277.2,812.1C276.3,812.2 275.3,812.3 274.4,812.3C272.5,812.4 270.4,812.6 268.3,812.7C266.2,812.8 264,812.8 261.8,812.9L258.4,812.9C257.3,812.9 256.1,812.8 255,812.8C253.9,812.8 252.7,812.7 251.6,812.7C250.5,812.6 249.3,812.5 248.2,812.5C247.1,812.4 246,812.3 244.9,812.2C243.8,812.1 242.7,812 241.7,811.9C239.6,811.6 237.5,811.4 235.6,811.1C234.6,811 233.7,810.8 232.8,810.7C231.9,810.5 231,810.4 230.2,810.2C228.5,809.9 227,809.6 225.6,809.3C224.2,809 223.1,808.7 222.1,808.5C220.2,808 219.1,807.8 219.1,807.8L229.4,766.8C229.4,766.8 231,767.2 233.3,767.7C234.5,768 235.9,768.2 237.3,768.5C238,768.6 238.8,768.8 239.6,768.9C240,769 240.4,769 240.8,769.1L242,769.3C243.6,769.5 245.2,769.7 246.7,769.9C248.2,770.1 249.6,770.1 250.8,770.2C252,770.3 253,770.4 253.7,770.4L254.8,770.4L254.4,779.4L253.6,779.4C253.1,779.4 252.4,779.3 251.6,779.3C249.9,779.2 247.7,779 245.5,778.8C243.3,778.5 241.1,778.2 239.4,778C237.8,777.7 236.7,777.5 236.7,777.5L232.6,801.2C232.6,801.2 233.4,801.3 234.7,801.6C236,801.9 237.9,802.1 240.2,802.4C241.3,802.5 242.6,802.7 243.9,802.9C245.2,803 246.6,803.1 248,803.2C249.4,803.3 250.9,803.4 252.4,803.5C253.9,803.5 255.4,803.6 256.9,803.6C259.9,803.7 263,803.6 265.8,803.5C266.5,803.5 267.2,803.5 267.9,803.4C268.6,803.4 269.3,803.3 269.9,803.3C271.2,803.2 272.4,803.1 273.6,803C275.9,802.9 277.8,802.6 279.1,802.4C280.4,802.2 281.2,802.1 281.2,802.1L273.3,743.4C273.3,743.4 272.6,743.5 271.4,743.6C270.2,743.8 268.5,743.9 266.4,744C262.2,744.2 256.6,744.4 251.1,743.8C245.6,743.3 240.1,742.3 236.1,741.3C235.1,741.1 234.2,740.8 233.4,740.6C232.6,740.4 231.9,740.2 231.3,740C230.7,739.9 230.3,739.7 230,739.6C229.7,739.5 229.5,739.4 229.5,739.4C229.5,739.4 228.8,739.2 227.7,738.8C227.2,738.6 226.5,738.4 225.8,738.2C225.1,737.9 224.4,737.6 223.7,737.4C223,737.1 222.3,736.8 221.6,736.6C220.9,736.3 220.3,736 219.8,735.8C218.7,735.3 218,735 218,735L188.1,797C188.1,797 187.1,796.6 185.3,795.6C184.4,795.1 183.3,794.6 182.1,794C180.9,793.4 179.5,792.7 178,791.8C172,788.5 164.4,783.6 157.2,778C156.3,777.3 155.4,776.6 154.5,775.9C153.6,775.2 152.7,774.5 151.9,773.8C150.2,772.3 148.6,770.9 146.9,769.5C143.8,766.6 140.9,763.9 138.6,761.4C137.4,760.2 136.3,759 135.4,758C134.5,757 133.7,756 133,755.3C131.7,753.8 131,752.9 131,752.9L163.5,725.8C163.5,725.8 164.6,727 166.1,728.8C166.9,729.7 167.9,730.7 168.9,731.8C169.9,732.9 171,734.1 172.2,735.2C173.4,736.3 174.5,737.4 175.6,738.4C176.7,739.4 177.8,740.3 178.7,741.1C179.2,741.5 179.6,741.9 179.9,742.2C180.3,742.5 180.6,742.8 180.9,743C181.5,743.4 181.8,743.7 181.8,743.7L176.2,750.8C176.2,750.8 175.3,750.1 174,749.1C172.7,748 171.1,746.6 169.4,745.1C167.8,743.6 166.2,742 165,740.9C164.4,740.3 163.9,739.8 163.6,739.5C163.3,739.1 163.1,738.9 163.1,738.9L145.8,755.6C145.8,755.6 146.3,756.2 147.2,757.1C148.1,758.1 149.5,759.3 151.2,760.9C154.5,764.1 159.1,768 164,771.7C165.2,772.7 166.5,773.5 167.7,774.4C168.9,775.3 170.1,776.1 171.3,776.9C173.7,778.4 175.9,779.9 177.9,781.1C179.9,782.2 181.5,783.2 182.7,783.9C183.3,784.2 183.7,784.5 184,784.7C184.3,784.9 184.5,785 184.5,785L212.6,732.8C212.6,732.8 212.4,732.7 212.2,732.6C211.9,732.4 211.5,732.2 211,731.9C210,731.3 208.4,730.5 206.7,729.3C203.1,727.1 198.7,723.8 194.5,720.2C190.3,716.5 186.5,712.5 183.8,709.3C183.1,708.5 182.5,707.7 182,707.1C181.5,706.4 181,705.9 180.6,705.4C180.2,704.9 179.9,704.5 179.8,704.3C179.6,704 179.5,703.9 179.5,703.9C179.5,703.9 179,703.3 178.4,702.3C178.1,701.8 177.6,701.3 177.3,700.7C176.9,700.1 176.5,699.4 176.1,698.8C175.7,698.1 175.2,697.5 174.9,696.9C174.5,696.3 174.2,695.7 173.9,695.2C173.3,694.2 172.9,693.5 172.9,693.5L112.9,726.5C112.9,726.5 112.8,726.3 112.5,725.8C112.3,725.3 111.9,724.6 111.4,723.7C110.9,722.8 110.4,721.7 109.8,720.5C109.5,719.9 109.2,719.2 108.8,718.5C108.5,717.8 108.1,717 107.8,716.3C107.1,714.7 106.3,713.1 105.5,711.3C104.8,709.5 104,707.6 103.2,705.6C102.4,703.6 101.7,701.5 101,699.4C100.6,698.3 100.3,697.3 99.9,696.2C99.5,695.1 99.3,694 98.9,692.9C98.6,691.8 97.4,687.4 97.1,686.3C96.6,684.1 96.1,682 95.6,679.9C95.2,677.8 94.8,675.8 94.5,673.9C94.3,672.9 94.2,672 94,671.1C93.9,670.2 93.8,669.3 93.7,668.5C93.5,666.8 93.3,665.3 93.1,663.9C92.9,662.5 92.9,661.3 92.8,660.3C92.6,658.3 92.6,657.2 92.6,657.2L134.8,654.4C134.8,654.4 134.9,656 135.1,658.4C135.2,659.6 135.4,661 135.6,662.5C135.7,663.2 135.8,664 135.9,664.8C136,665.6 136.2,666.4 136.3,667.2C136.6,668.8 136.8,670.4 137.2,671.8C137.5,673.3 137.9,674.6 138.1,675.8C138.2,676.4 138.3,676.9 138.5,677.4C138.6,677.9 138.8,678.3 138.8,678.6C139,679.3 139.1,679.7 139.1,679.7L130.4,682.1C130.4,682.1 130.1,681 129.6,679.4C129.2,677.8 128.7,675.6 128.2,673.4C127.8,671.2 127.4,669 127.1,667.4C126.9,666.6 126.8,665.9 126.8,665.4C126.7,664.9 126.7,664.6 126.7,664.6L102.8,667.9C102.8,667.9 102.9,668.7 103.1,670C103.3,671.3 103.7,673.2 104.1,675.4C104.9,679.9 106.3,685.8 108.1,691.7L108.4,692.8L108.8,693.9C109,694.6 109.3,695.3 109.5,696C110,697.4 110.5,698.8 110.9,700.2C112,702.9 112.9,705.3 113.8,707.5C115.7,711.7 116.9,714.4 116.9,714.4L170.3,688.7C170.3,688.7 170,688.1 169.5,687C169,685.9 168.2,684.3 167.5,682.4C167.1,681.4 166.7,680.4 166.3,679.3C165.9,678.2 165.5,677 165.1,675.8C164.4,673.3 163.6,670.7 163,668C162.8,667.3 162.7,666.7 162.5,666C162.4,665.3 162.3,664.6 162.1,664C162,663.3 161.9,662.7 161.7,662C161.6,661.7 161.6,661.3 161.5,661C161.5,660.7 161.4,660.3 161.4,660C161.2,658.7 161.1,657.5 160.9,656.3C160.8,655.1 160.7,654 160.6,652.9C160.4,650.8 160.4,649.1 160.4,647.9C160.4,646.7 160.3,646 160.3,646C160.3,646 160.3,645.2 160.4,644L160.4,640.9C160.4,640.5 160.5,640.1 160.5,639.7C160.6,638.1 160.7,636.6 160.8,635.4C161,634.2 161.1,633.5 161.1,633.5L93.2,625C93.2,625 93.3,623.9 93.6,621.9C93.7,620.9 93.9,619.7 94.2,618.4C94.4,617 94.7,615.5 95,613.8C96.4,607.1 98.5,598.2 101.6,589.7C104.7,581.1 108.5,572.9 111.8,566.9C113.4,563.9 114.9,561.5 115.9,559.7C116.4,558.8 116.8,558.2 117.1,557.7C117.4,557.3 117.5,557 117.5,557L153.3,579.5C153.3,579.5 153.1,579.8 152.7,580.4C152.3,581 151.8,581.9 151.2,582.9C150.6,583.9 149.9,585.2 149.2,586.5C148.5,587.8 147.8,589.3 147.1,590.7L146.5,591.8C146.3,592.2 146.2,592.5 146,592.9C145.7,593.6 145.4,594.3 145,595C144.4,596.4 143.8,597.6 143.4,598.8C142.5,601 141.9,602.5 141.9,602.5L133.4,599.4C133.4,599.4 133.8,598.4 134.4,596.8C134.7,596 135.1,595.1 135.4,594.1C135.8,593.1 136.3,592.1 136.7,591.1C137.2,590.1 137.6,589.1 138,588.1C138.4,587.2 138.9,586.3 139.3,585.6C140.1,584.1 140.6,583.1 140.6,583.1L119.3,571.8C119.3,571.8 119,572.5 118.3,573.7C118,574.3 117.6,575 117.2,575.8C116.8,576.6 116.3,577.6 115.8,578.6C115.3,579.6 114.8,580.8 114.3,582C113.8,583.2 113.2,584.4 112.7,585.8C111.7,588.5 110.5,591.3 109.5,594.2C109,595.6 108.5,597.1 108,598.5C107.5,599.9 107.2,601.4 106.8,602.7C106.4,604.1 106,605.4 105.7,606.7C105.4,608 105.1,609.2 104.9,610.3C104.4,612.5 103.9,614.4 103.7,615.7C103.5,617 103.3,617.8 103.3,617.8L161.6,628.3C161.6,628.3 161.7,627.6 161.9,626.4C162.1,625.2 162.6,623.5 163,621.5C164.1,617.5 165.7,612.2 167.9,607.1C170,602 172.8,597.2 175,593.6C176.1,591.9 177,590.4 177.8,589.4C178.5,588.4 178.9,587.8 178.9,587.8C178.9,587.8 179,587.6 179.2,587.4C179.4,587.1 179.7,586.7 180,586.3C180.7,585.4 181.7,584.2 182.7,582.9C183.7,581.7 184.7,580.5 185.5,579.7C185.9,579.3 186.2,578.9 186.5,578.7C186.7,578.5 186.9,578.3 186.9,578.3L137,531.4C137,531.4 137.8,530.6 139.2,529.1C140.5,527.6 142.6,525.7 145.1,523.4C150.1,518.8 157,512.9 164.6,507.8C172.1,502.7 180.1,498.3 186.2,495.3C189.3,493.9 191.9,492.7 193.7,491.9C195.5,491.2 196.6,490.7 196.6,490.7L212.4,530C212.4,530 212,530.1 211.4,530.4C211.1,530.5 210.7,530.7 210.2,530.9C209.8,531.1 209.3,531.3 208.7,531.6C207.6,532.1 206.3,532.7 204.9,533.3C203.6,534 202.1,534.7 200.7,535.4C199.3,536.1 197.9,536.9 196.6,537.7C195.3,538.5 194.1,539.1 193.1,539.8C191.1,541.1 189.7,542 189.7,542L184.7,534.5C184.7,534.5 185.6,533.9 187,533C187.7,532.5 188.5,532 189.4,531.5C190.3,531 191.3,530.4 192.2,529.9C193.2,529.3 194.1,528.8 195,528.3C195.9,527.8 196.8,527.4 197.5,527C199,526.2 200,525.7 200,525.7L190,503.6C190,503.6 189.3,503.9 188.1,504.6C186.9,505.2 185.2,506 183.2,507.2C181.2,508.4 178.9,509.6 176.5,511.1C175.3,511.9 174.1,512.7 172.8,513.5C172.2,513.9 171.5,514.3 170.9,514.7C170.3,515.1 169.7,515.6 169,516C167.8,516.9 166.5,517.8 165.3,518.6C164.1,519.5 162.9,520.4 161.8,521.3C160.7,522.2 159.6,523 158.6,523.9C157.6,524.8 156.7,525.6 155.8,526.3C154.9,527 154.1,527.7 153.4,528.3C152.7,528.9 152.1,529.5 151.6,529.9C150.6,530.8 150.1,531.3 150.1,531.3L191.1,574.1C191.1,574.1 191.6,573.6 192.5,572.8C193.4,572 194.7,570.9 196.3,569.5C199.5,566.9 204,563.5 208.7,560.7C213.4,557.8 218.5,555.5 222.3,553.9C223.3,553.5 224.1,553.2 224.9,552.9C225.7,552.6 226.4,552.4 227,552.2C228.1,551.8 228.8,551.6 228.8,551.6C228.8,551.6 229,551.5 229.3,551.4C229.6,551.3 230.1,551.1 230.6,551C231.7,550.7 233.2,550.3 234.7,549.8C236.2,549.5 237.7,549.1 238.9,548.8C239.5,548.6 240,548.6 240.3,548.5C240.6,548.4 240.8,548.4 240.8,548.4L228.1,481.2C228.1,481.2 229.2,481 231.2,480.6C232.2,480.4 233.4,480.2 234.7,480C236.1,479.8 237.6,479.6 239.3,479.4C240.1,479.3 241,479.2 241.9,479.1C242.8,479 243.8,478.9 244.7,478.9C246.6,478.8 248.7,478.6 250.8,478.5C252.9,478.4 255.1,478.4 257.3,478.3L260.7,478.3C261.8,478.3 263,478.4 264.1,478.4C265.2,478.4 266.4,478.5 267.5,478.5C268.6,478.6 269.8,478.7 270.9,478.7C272,478.8 273.1,478.9 274.2,479C275.3,479.1 276.4,479.2 277.4,479.3C279.5,479.6 281.6,479.8 283.5,480.1C284.5,480.2 285.4,480.4 286.3,480.5C287.2,480.7 288.1,480.8 288.9,481C290.6,481.3 292.1,481.6 293.5,481.9C294.9,482.2 296,482.5 297,482.7C298.9,483.2 300,483.4 300,483.4L289.7,524.4C289.7,524.4 288.1,524 285.8,523.5C284.6,523.2 283.2,523 281.8,522.7C281.1,522.6 280.3,522.4 279.5,522.3C279.1,522.2 278.7,522.2 278.3,522.1L277.1,521.9C275.5,521.7 273.9,521.5 272.4,521.3C270.9,521.1 269.5,521.1 268.3,521C267.1,520.9 266.1,520.8 265.4,520.8L264.3,520.8L264.7,511.8L265.5,511.8C266,511.8 266.7,511.9 267.5,511.9C269.2,512 271.4,512.2 273.6,512.4C275.8,512.7 278,513 279.7,513.2C281.3,513.5 282.4,513.7 282.4,513.7L286.5,490C286.5,490 285.7,489.9 284.4,489.6C283.1,489.3 281.2,489.1 278.9,488.8C277.8,488.7 276.5,488.5 275.2,488.3C273.9,488.2 272.5,488.1 271.1,488C269.7,487.9 268.2,487.8 266.7,487.7C265.2,487.7 263.7,487.6 262.2,487.6C259.2,487.5 256.1,487.6 253.3,487.7C252.6,487.7 251.9,487.7 251.2,487.8C250.5,487.8 249.8,487.9 249.2,487.9C247.9,488 246.7,488.1 245.5,488.2C243.2,488.3 241.3,488.6 240,488.8C238.7,489 237.9,489.1 237.9,489.1L245.8,547.8C245.8,547.8 246.5,547.7 247.7,547.6C248.9,547.4 250.6,547.3 252.7,547.2C256.9,547 262.5,546.8 268,547.4C273.5,547.9 279,548.9 283,549.9C284,550.1 284.9,550.4 285.7,550.6C286.5,550.8 287.2,551 287.8,551.2C288.4,551.3 288.8,551.5 289.1,551.6C289.4,551.7 289.6,551.8 289.6,551.8C289.6,551.8 290.3,552 291.4,552.4C291.9,552.6 292.6,552.8 293.3,553C294,553.3 294.7,553.6 295.4,553.8C296.1,554.1 296.8,554.4 297.5,554.6C298.2,554.9 298.8,555.2 299.3,555.4C300.4,555.9 301.1,556.2 301.1,556.2L330.3,494.3C330.3,494.3 331.3,494.7 333.1,495.7C334,496.2 335.1,496.7 336.3,497.3C337.5,497.9 338.9,498.6 340.4,499.5C346.4,502.8 354,507.7 361.2,513.3C362.1,514 363,514.7 363.9,515.4C364.8,516.1 365.7,516.8 366.5,517.5C368.2,519 369.8,520.4 371.5,521.8C374.6,524.7 377.5,527.4 379.8,529.9C381,531.1 382.1,532.3 383,533.3C383.9,534.3 384.7,535.3 385.4,536C386.7,537.5 387.4,538.4 387.4,538.4L354.9,565.5C354.9,565.5 353.8,564.3 352.3,562.5C351.5,561.6 350.5,560.6 349.5,559.5C348.5,558.4 347.4,557.2 346.2,556.1C345,555 343.9,553.9 342.8,552.9C341.7,551.9 340.6,551 339.7,550.2C339.2,549.8 338.8,549.4 338.5,549.1C338.1,548.8 337.8,548.5 337.5,548.3C336.9,547.9 336.6,547.6 336.6,547.6L342.2,540.5C342.2,540.5 343.1,541.2 344.4,542.2C345.7,543.3 347.3,544.7 349,546.2C350.6,547.7 352.2,549.3 353.4,550.4C354,551 354.5,551.5 354.8,551.8C355.1,552.2 355.3,552.4 355.3,552.4L372.6,535.7C372.6,535.7 372.1,535.1 371.2,534.2C370.3,533.2 368.9,532 367.2,530.4C363.9,527.2 359.3,523.3 354.4,519.6C353.2,518.6 351.9,517.8 350.7,516.9C349.5,516 348.3,515.2 347.1,514.4C344.7,512.9 342.5,511.4 340.5,510.2C338.5,509.1 336.9,508.1 335.7,507.4C335.1,507.1 334.7,506.8 334.4,506.6C334.1,506.4 333.9,506.3 333.9,506.3L305.8,558.5C305.8,558.5 306,558.6 306.2,558.7C306.5,558.9 306.9,559.1 307.4,559.4C308.4,560 310,560.8 311.7,562C315.3,564.2 319.7,567.5 323.9,571.1C328.1,574.8 331.9,578.8 334.6,582C335.3,582.8 335.9,583.6 336.4,584.2C336.9,584.9 337.4,585.4 337.8,585.9C338.2,586.4 338.5,586.8 338.6,587C338.8,587.3 338.9,587.4 338.9,587.4C338.9,587.4 339.4,588 340,589C340.3,589.5 340.8,590 341.1,590.6C341.5,591.2 341.9,591.9 342.3,592.5C342.7,593.2 343.2,593.8 343.5,594.4C343.9,595 344.2,595.6 344.5,596.1C345.1,597.1 345.5,597.8 345.5,597.8L405.5,564.8C405.5,564.8 405.6,565 405.9,565.5C406.1,566 406.5,566.7 407,567.6C407.5,568.5 408,569.6 408.6,570.8C408.9,571.4 409.2,572.1 409.6,572.8C409.9,573.5 410.3,574.3 410.6,575C411.3,576.6 412.1,578.2 412.9,580C413.6,581.8 414.4,583.7 415.2,585.7C416,587.7 416.7,589.8 417.4,591.9C417.8,593 418.1,594 418.5,595.1C418.9,596.2 419.1,597.3 419.5,598.4C419.8,599.5 421,603.9 421.3,605C421.8,607.2 422.3,609.3 422.8,611.4C423.2,613.5 423.6,615.5 423.9,617.4C424.1,618.4 424.2,619.3 424.4,620.2C424.5,621.1 424.6,622 424.7,622.8C424.9,624.5 425.1,626 425.3,627.4C425.5,628.8 425.5,630 425.6,631C425.8,633 425.8,634.1 425.8,634.1L383.6,636.9C383.6,636.9 383.5,635.3 383.3,632.9C383.2,631.7 383,630.3 382.8,628.8C382.7,628.1 382.6,627.3 382.5,626.5C382.4,625.7 382.2,624.9 382.1,624.1C381.8,622.5 381.6,620.9 381.2,619.5C380.9,618 380.5,616.7 380.3,615.5C380.2,614.9 380.1,614.4 379.9,613.9C379.8,613.4 379.6,613 379.6,612.7C379.4,612 379.3,611.6 379.3,611.6L388,609.2C388,609.2 388.3,610.3 388.8,611.9C389.2,613.5 389.7,615.7 390.2,617.9C390.6,620.1 391,622.3 391.3,623.9C391.5,624.7 391.6,625.4 391.6,625.9C391.7,626.4 391.7,626.7 391.7,626.7L415.6,623.4C415.6,623.4 415.5,622.6 415.3,621.3C415.1,620 414.7,618.1 414.3,615.9C413.5,611.4 412.1,605.5 410.3,599.6L410,598.5L409.6,597.4C409.4,596.7 409.1,596 408.9,595.3C408.4,593.9 407.9,592.5 407.5,591.1C406.4,588.4 405.5,586 404.6,583.8C402.7,579.6 401.5,576.9 401.5,576.9L348.1,602.6C348.1,602.6 348.4,603.2 348.9,604.3C349.4,605.4 350.2,607 350.9,608.9C351.3,609.9 351.7,610.9 352.1,612C352.5,613.1 352.9,614.3 353.3,615.5C354,618 354.8,620.6 355.4,623.3C355.6,624 355.7,624.6 355.9,625.3C356,626 356.1,626.7 356.3,627.3C356.4,628 356.5,628.6 356.7,629.3C356.8,629.6 356.8,630 356.9,630.3C356.9,630.6 357,631 357,631.3C357.2,632.6 357.3,633.8 357.5,635C357.6,636.2 357.7,637.3 357.8,638.4C358,640.5 358,642.2 358,643.4C358,644.6 358.1,645.3 358.1,645.3C358.1,645.3 358.1,646.1 358,647.3L358,650.4C358,650.8 357.9,651.2 357.9,651.6C357.8,653.2 357.7,654.7 357.6,655.9C357.4,657.1 357.3,657.8 357.3,657.8L425.3,666.7Z" style="fill:rgb(241,196,15);fill-rule:nonzero;"/>
    </g>
</svg>
