<?xml version="1.0" encoding="UTF-8" standalone="no"?><!DOCTYPE svg PUBLIC "-//W3C//DTD SVG 1.1//EN" "http://www.w3.org/Graphics/SVG/1.1/DTD/svg11.dtd"><svg width="100%" height="100%" viewBox="0 0 988 992" version="1.1" xmlns="http://www.w3.org/2000/svg" xmlns:xlink="http://www.w3.org/1999/xlink" xml:space="preserve" xmlns:serif="http://www.serif.com/" style="fill-rule:evenodd;clip-rule:evenodd;stroke-linejoin:round;stroke-miterlimit:2;"><path d="M987.5,1.875l-120.312,0l0,88.125l52.188,0l0,-42.812l19.375,0l0,55l-90.938,0l0,-100.625l-120.312,0l0,88.125l52.188,0l0,-42.812l19.375,0l0,55l-90.938,0l0,-100.625l-120.625,0l0,88.125l52.188,0l0,-42.812l19.375,0l0,55l-90.938,0l0,-100.625l-120.625,0l0,88.125l52.188,0l0,-42.812l19.375,0l0,55l-90.938,0l0,-100.625l-120.625,0l0,88.125l52.188,0l0,-42.812l19.375,0l0,55l-90.938,0l0,-100.625l-119.375,0l0,88.125l52.188,0l0,-42.812l19.375,0l0,55l-90.938,0l0,-100.625l-149.375,0l0,120.313l88.125,0l0,-52.188l-42.813,0l0,-19.375l55,0l0,90.938l-100.312,0l0,120.625l88.125,0l0,-52.188l-42.813,0l0,-17.812l55,0l0,90.938l-100.312,0l0,120.625l88.125,0l0,-52.188l-42.813,0l0,-19.375l55,0l0,90.938l-100.312,0l0,120.625l88.125,0l0,-52.188l-42.813,0l0,-19.375l55,0l0,90.938l-100.312,0l0,119.688l88.125,0l0,-52.188l-42.813,0l0,-19.375l55,0l0,90.938l-100.312,0l0,120.625l88.125,0l0,-52.5l-42.813,0l0,-19.375l55,0l0,90.938l-100.312,0l0,149.688l120.312,0l0,-88.125l-52.188,0l0,42.813l-19.375,0l0,-55l90.938,0l0,100.625l120.313,0l0,-88.125l-52.188,0l0,42.812l-19.375,0l0,-55l90.938,0l0,100.625l120.625,0l0,-88.125l-52.188,0l0,42.812l-19.687,0l0,-55l90.938,0l0,100.625l120.625,0l0,-88.125l-52.188,0l0,42.812l-19.375,0l0,-55l90.938,0l0,100.625l120.625,0l0,-88.125l-52.188,0l0,42.812l-19.375,0l0,-55l90.938,0l0,100.625l119.688,0l0,-88.125l-52.188,0l0,42.812l-19.375,0l0,-55l90.938,0l0,100.625l149.687,0l0,-120.312l-88.125,0l0,52.188l42.812,0l0,19.375l-55,0l0,-93.125l100,0l0,-120.625l-88.125,0l0,52.188l42.812,0l0,19.375l-55,0l0,-90.938l100.312,0l0,-120l-88.125,0l0,52.188l42.812,0l0,19.375l-55,0l0,-90.938l100.312,0l0,-120.625l-88.125,0l0,52.188l42.812,0l0,19.375l-55,0l0,-90.938l100.312,0l0,-120.625l-88.125,0l0,52.188l42.812,0l0,19.375l-55,0l0,-90.938l100.312,0l0,-120.625l-88.125,0l0,52.188l42.812,0l0,19.375l-55,0l0,-90.938l100.312,0l0,-148.438Zm-16.562,16.562l0,116.563l-100.625,0l0,123.75l88.125,0l0,-52.188l-42.812,0l0,-19.375l55,0l0,87.5l-100.625,0l0,123.75l88.125,0l0,-52.188l-42.812,0l0,-19.375l55,0l0,87.5l-100.625,0l0,123.75l88.125,0l0,-52.188l-42.812,0l0,-19.375l55,0l0,87.5l-100.625,0l0,123.75l88.125,0l0,-52.188l-42.812,0l0,-19.375l55,0l0,87.5l-100.625,0l0,123.75l88.125,0l0,-52.188l-42.813,0l0,-19.375l55,0l0,87.5l-100.625,0l0,123.75l88.125,0l0,-52.188l-42.813,0l0,-19.375l55,0l0,87.188l-116.562,0l0,-100.625l-123.75,0l0,88.125l52.188,0l0,-42.812l19.375,0l0,55l-87.5,0l0,-100.625l-123.75,0l0,88.125l52.188,0l0,-42.812l19.375,0l0,55l-87.5,0l0,-100.625l-123.75,0l0,88.125l52.188,0l0,-42.813l19.375,0l0,55l-87.5,0l0,-100.625l-123.75,0l0,88.125l52.188,0l0,-42.813l19.375,0l0,55l-87.5,0l0,-100.625l-121.875,0l0,88.125l52.188,0l0,-42.812l19.375,0l0,55l-87.188,0l0,-100.625l-123.75,0l0,88.125l52.188,0l0,-42.812l19.375,0l0,55l-87.188,0l0,-116.562l100.625,0l0,-123.75l-88.125,0l0,52.188l42.813,0l0,19.375l-55,0l0,-87.5l100.625,0l0,-123.75l-88.125,0l0,52.188l42.812,0l0,19.375l-55,0l0,-87.5l100.625,0l0,-123.75l-88.125,0l0,52.188l42.812,0l0,19.375l-55,0l0,-87.5l100.625,0l0,-123.75l-88.125,0l0,52.188l42.813,0l0,19.375l-55,0l0,-87.5l100.625,0l0,-123.75l-88.125,0l0,52.188l42.813,0l0,19.375l-55,0l0,-87.5l100.625,0l0,-121.875l-88.125,0l0,52.188l42.812,0l0,19.375l-55,0l0,-87.188l116.563,0l0,100.625l123.75,0l0,-88.125l-52.188,0l0,42.812l-19.375,0l0,-55.312l87.5,0l0,100.625l123.75,0l0,-88.125l-52.188,0l0,42.812l-21.563,0l0,-55.312l87.5,0l0,100.625l123.75,0l0,-88.125l-52.188,0l0,42.812l-19.375,0l0,-55.312l87.5,0l0,100.625l123.75,0l0,-88.125l-52.188,0l0,42.812l-19.375,0l0,-55.312l87.5,0l0,100.625l123.75,0l0,-88.125l-52.188,0l0,42.812l-19.375,0l0,-55.312l87.5,0l0,100.625l123.75,0l0,-88.125l-52.188,0l0,42.812l-19.375,0l0,-55.312l87.188,0Z" style="fill:#f1c40f;fill-rule:nonzero;"/></svg>