<?xml version="1.0" encoding="iso-8859-1"?>
<!-- Uploaded to: SVG Repo, www.svgrepo.com, Generator: SVG Repo Mixer Tools -->
<!DOCTYPE svg PUBLIC "-//W3C//DTD SVG 1.1//EN" "http://www.w3.org/Graphics/SVG/1.1/DTD/svg11.dtd">
<svg fill="#000000" height="800px" width="800px" version="1.1" id="Capa_1" xmlns="http://www.w3.org/2000/svg" xmlns:xlink="http://www.w3.org/1999/xlink" 
	 viewBox="0 0 285.996 285.996" xml:space="preserve">
<g>
	<path d="M41.343,53.048l52.133,36.538c1.096,0.771,2.477,1.194,3.888,1.194c1.013,0,2.007-0.221,2.876-0.64l28.083-13.707
		c2.228-1.076,3.342-3.462,3.342-5.937V8.911c0-3.172-2.053-5.656-5.163-5.656c-0.869,0-1.528,0.197-2.333,0.585L42.032,43.44
		c-1.85,0.891-3.002,2.601-3.163,4.575C38.708,49.989,39.664,51.871,41.343,53.048z"/>
	<path d="M104.195,114.876l-7.904,34.632c-0.46,2.019,0.077,4.367,1.367,5.984l22.144,27.674c1.29,1.621,3.463,2.576,5.536,2.576
		h35.521c2.072,0,4.245-0.955,5.532-2.572l22.142-27.718c1.294-1.617,1.833-3.946,1.372-5.969L182,114.866
		c-0.459-2.016-1.959-3.895-3.828-4.798l-32.008-15.411c-1.831-0.879-4.304-0.879-6.137,0.003l-32.005,15.414
		C106.156,110.974,104.654,112.86,104.195,114.876z"/>
	<path d="M75.878,143.064l6.85-30.017c0.575-2.506-0.494-5.286-2.599-6.762L28.575,70.153c-0.99-0.694-2.136-1.061-3.313-1.061
		c-2.626,0-4.877,1.828-5.473,4.444L0.15,159.584c-0.392,1.718-0.008,3.465,1.052,4.793c1.042,1.307,2.614,2.056,4.313,2.056
		c0.54,0,1.084-0.076,1.616-0.227l64.057-18.196C73.462,147.361,75.346,145.377,75.878,143.064z"/>
	<path d="M157.447,76.437l28.237,13.586c0.864,0.417,1.865,0.638,2.869,0.638c1.458,0,2.882-0.455,4-1.281l50.474-37.318
		c1.63-1.205,2.494-3.089,2.31-5.038c-0.185-1.949-1.383-3.638-3.207-4.516l-80.299-38.67c-0.805-0.387-1.702-0.583-2.572-0.583
		c-3.109,0-5.595,2.484-5.595,5.656v61.587C153.665,72.973,155.214,75.36,157.447,76.437z"/>
	<path d="M285.845,158.71L265.94,71.499c-0.598-2.607-2.84-4.428-5.451-4.428c-1.225,0-2.406,0.396-3.421,1.145l-51.183,37.845
		c-2.057,1.521-3.054,4.217-2.483,6.702l6.894,30.203c0.534,2.329,2.441,4.316,4.743,4.943l63.876,17.449
		c0.513,0.14,1.036,0.21,1.556,0.211h0.001c1.703,0,3.279-0.753,4.324-2.064C285.856,162.173,286.238,160.423,285.845,158.71z"/>
	<path d="M275.301,186.488l-64.996-17.755c-0.533-0.144-1.089-0.219-1.653-0.219c-2.01,0-3.938,0.913-5.159,2.444l-19.185,24.057
		c-1.51,1.892-1.859,4.646-0.874,6.85l28.418,63.716c0.93,2.087,2.883,3.384,5.095,3.384c0.001,0,0,0,0.001,0
		c1.705,0,3.314-0.793,4.411-2.171l56.876-71.318c1.213-1.52,1.587-3.501,1.002-5.297
		C278.651,188.382,277.181,187.002,275.301,186.488z"/>
	<path d="M101.795,194.901l-19.018-23.85c-1.217-1.528-3.142-2.44-5.148-2.44c-0.587,0-1.164,0.079-1.717,0.236l-64.525,18.33
		c-1.864,0.529-3.319,1.916-3.892,3.709c-0.573,1.793-0.193,3.767,1.012,5.273l55.553,69.662c1.101,1.382,2.711,2.175,4.42,2.175
		c2.185,0,4.129-1.271,5.073-3.315l29.077-62.876C103.656,199.582,103.319,196.805,101.795,194.901z"/>
	<path d="M164.21,211.38c-1.033-2.319-3.435-3.639-5.975-3.639h-30.427c-2.509,0-4.903,1.291-5.958,3.57l-29.361,63.372
		c-0.829,1.791-0.709,3.847,0.321,5.459c1.029,1.612,2.822,2.599,4.796,2.599h89.758c1.961,0,3.749-1.038,4.783-2.633
		c1.034-1.597,1.174-3.54,0.376-5.324L164.21,211.38z"/>
</g>
</svg>