<?xml version="1.0" encoding="UTF-8" standalone="no"?><!DOCTYPE svg PUBLIC "-//W3C//DTD SVG 1.1//EN" "http://www.w3.org/Graphics/SVG/1.1/DTD/svg11.dtd"><svg width="100%" height="100%" viewBox="0 0 720 698" version="1.1" xmlns="http://www.w3.org/2000/svg" xmlns:xlink="http://www.w3.org/1999/xlink" xml:space="preserve" xmlns:serif="http://www.serif.com/" style="fill-rule:evenodd;clip-rule:evenodd;stroke-linejoin:round;stroke-miterlimit:2;"><path d="M396.563,0l0,253.75l188.437,0l0,-123.438l-61.562,0l0,61.875l-65.312,0l0,-130.625l200,0l0,256.562l-596.25,0l0,-256.562l199.688,0l0,130.625l-65,0l0,-61.875l-61.875,0l0,123.438l188.75,0l0,-253.75l-323.438,0l0,697.813l323.438,0l0,-253.75l-188.75,0l0,123.125l61.875,0l0,-61.562l65,0l0,130.312l-199.688,0l0,-256.25l596.25,0l0,256.25l-200,0l0,-130.312l65.312,0l0,61.562l61.562,0l0,-123.125l-188.437,0l0,253.75l323.125,0l0,-697.813l-323.125,0Z" style="fill:#f1c40f;fill-rule:nonzero;"/></svg>